<svg width="28" height="28" viewBox="0 0 28 28" fill="none" xmlns="http://www.w3.org/2000/svg">
<g id="calendar 1" clip-path="url(#clip0_20_18)">
<g id="Group">
<g id="Group_2">
<path id="Vector" d="M7.12502 0.25C6.58257 0.25 6.14285 0.68972 6.14285 1.23216V3.19643H8.10713V1.23216C8.10713 0.68972 7.6674 0.25 7.12502 0.25Z" fill="white"/>
</g>
</g>
<g id="Group_3">
<g id="Group_4">
<path id="Vector_2" d="M20.875 0.25C20.3325 0.25 19.8928 0.68972 19.8928 1.23216V3.19643H21.8571V1.23216C21.8571 0.68972 21.4174 0.25 20.875 0.25Z" fill="white"/>
</g>
</g>
<g id="Group_5">
<g id="Group_6">
<path id="Vector_3" d="M24.8036 3.19643H21.8571V7.12502C21.8571 7.66746 21.4174 8.10718 20.875 8.10718C20.3325 8.10718 19.8928 7.66746 19.8928 7.12502V3.19643H8.10712V7.12502C8.10712 7.66746 7.6674 8.10718 7.12496 8.10718C6.58252 8.10718 6.1428 7.66746 6.1428 7.12502V3.19643H3.19643C1.56916 3.19643 0.25 4.51559 0.25 6.14285V24.8036C0.25 26.4309 1.56916 27.75 3.19643 27.75H24.8036C26.4308 27.75 27.75 26.4309 27.75 24.8036V6.14285C27.75 4.51559 26.4308 3.19643 24.8036 3.19643ZM25.7857 24.8036C25.7857 25.346 25.346 25.7857 24.8035 25.7857H3.19643C2.65399 25.7857 2.21427 25.346 2.21427 24.8036V12.0357H25.7857V24.8036Z" fill="white"/>
</g>
</g>
<g id="Group_7">
<g id="Group_8">
<path id="Vector_4" d="M8.10711 14H6.14284C5.6004 14 5.16068 14.4397 5.16068 14.9822C5.16068 15.5246 5.6004 15.9643 6.14284 15.9643H8.10711C8.64955 15.9643 9.08927 15.5246 9.08927 14.9822C9.08927 14.4397 8.64955 14 8.10711 14Z" fill="white"/>
</g>
</g>
<g id="Group_9">
<g id="Group_10">
<path id="Vector_5" d="M14.9821 14H13.0179C12.4754 14 12.0357 14.4397 12.0357 14.9822C12.0357 15.5246 12.4754 15.9643 13.0179 15.9643H14.9821C15.5246 15.9643 15.9643 15.5246 15.9643 14.9822C15.9643 14.4397 15.5246 14 14.9821 14Z" fill="white"/>
</g>
</g>
<g id="Group_11">
<g id="Group_12">
<path id="Vector_6" d="M21.8572 14H19.8929C19.3505 14 18.9107 14.4397 18.9107 14.9822C18.9107 15.5246 19.3505 15.9643 19.8929 15.9643H21.8572C22.3996 15.9643 22.8393 15.5246 22.8393 14.9822C22.8393 14.4397 22.3995 14 21.8572 14Z" fill="white"/>
</g>
</g>
<g id="Group_13">
<g id="Group_14">
<path id="Vector_7" d="M8.10711 17.9286H6.14284C5.6004 17.9286 5.16068 18.3683 5.16068 18.9107C5.16068 19.4532 5.6004 19.8929 6.14284 19.8929H8.10711C8.64955 19.8929 9.08927 19.4532 9.08927 18.9107C9.08927 18.3683 8.64955 17.9286 8.10711 17.9286Z" fill="white"/>
</g>
</g>
<g id="Group_15">
<g id="Group_16">
<path id="Vector_8" d="M14.9821 17.9286H13.0179C12.4754 17.9286 12.0357 18.3683 12.0357 18.9107C12.0357 19.4532 12.4754 19.8929 13.0179 19.8929H14.9821C15.5246 19.8929 15.9643 19.4532 15.9643 18.9107C15.9643 18.3683 15.5246 17.9286 14.9821 17.9286Z" fill="white"/>
</g>
</g>
<g id="Group_17">
<g id="Group_18">
<path id="Vector_9" d="M21.8572 17.9286H19.8929C19.3505 17.9286 18.9107 18.3683 18.9107 18.9107C18.9107 19.4532 19.3505 19.8929 19.8929 19.8929H21.8572C22.3996 19.8929 22.8393 19.4532 22.8393 18.9107C22.8393 18.3683 22.3995 17.9286 21.8572 17.9286Z" fill="white"/>
</g>
</g>
<g id="Group_19">
<g id="Group_20">
<path id="Vector_10" d="M8.10711 21.8571H6.14284C5.6004 21.8571 5.16068 22.2968 5.16068 22.8393C5.16068 23.3817 5.6004 23.8214 6.14284 23.8214H8.10711C8.64955 23.8214 9.08927 23.3817 9.08927 22.8392C9.08927 22.2968 8.64955 21.8571 8.10711 21.8571Z" fill="white"/>
</g>
</g>
<g id="Group_21">
<g id="Group_22">
<path id="Vector_11" d="M14.9821 21.8571H13.0179C12.4754 21.8571 12.0357 22.2968 12.0357 22.8393C12.0357 23.3817 12.4754 23.8214 13.0179 23.8214H14.9821C15.5246 23.8214 15.9643 23.3817 15.9643 22.8393C15.9643 22.2968 15.5246 21.8571 14.9821 21.8571Z" fill="white"/>
</g>
</g>
<g id="Group_23">
<g id="Group_24">
<path id="Vector_12" d="M21.8572 21.8571H19.8929C19.3505 21.8571 18.9107 22.2968 18.9107 22.8393C18.9107 23.3817 19.3505 23.8214 19.8929 23.8214H21.8572C22.3996 23.8214 22.8393 23.3817 22.8393 22.8393C22.8393 22.2968 22.3995 21.8571 21.8572 21.8571Z" fill="white"/>
</g>
</g>
</g>
<defs>
<clipPath id="clip0_20_18">
<rect width="27.5" height="27.5" fill="white" transform="translate(0.25 0.25)"/>
</clipPath>
</defs>
</svg>
