<svg width="90" height="77" viewBox="0 0 90 77" fill="none" xmlns="http://www.w3.org/2000/svg">
<g clip-path="url(#clip0_151_32)">
<path d="M73.7479 18.8718L32.0181 21.9757C30.26 22.1064 28.7519 23.2008 28.0822 24.8315C27.4126 26.4623 27.7164 28.3008 28.8751 29.6293L38.0266 40.1216L53.0624 32.53C53.7542 32.1806 54.5984 32.4583 54.9478 33.1503C55.2972 33.8422 55.0195 34.6864 54.3275 35.0357L39.2918 42.6274L42.3014 56.2207C42.6824 57.942 43.9813 59.278 45.6912 59.7073C47.4045 60.1374 49.1791 59.5703 50.3261 58.2357L77.5994 26.4996C78.8411 25.0547 79.079 23.1006 78.2203 21.3999C77.3616 19.6991 75.6479 18.7303 73.7479 18.8718Z" fill="#41BE90"/>
</g>
<line x1="9.52383" y1="48.1154" x2="29.3224" y2="38.119" stroke="#41BE90" stroke-width="2.73088" stroke-linecap="round"/>
<line x1="18.9567" y1="49.7926" x2="31.9133" y2="43.2508" stroke="#FBA333" stroke-width="2.73088" stroke-linecap="round"/>
<line x1="27.5343" y1="51.901" x2="34.5042" y2="48.3819" stroke="#41BE90" stroke-width="2.73088" stroke-linecap="round"/>
<defs>
<clipPath id="clip0_151_32">
<rect width="47.9037" height="47.9037" fill="white" transform="translate(24.6626 21.6094) rotate(-26.7895)"/>
</clipPath>
</defs>
</svg>
