<svg width="137" height="24" viewBox="0 0 137 24" fill="none" xmlns="http://www.w3.org/2000/svg">
<path d="M11.9875 0L16.0742 6.36261L23.3883 8.28316L18.6 14.136L19.0336 21.6856L11.9875 18.9403L4.94142 21.6856L5.37504 14.136L0.58671 8.28316L7.90078 6.36261L11.9875 0Z" fill="#FBA333"/>
<path d="M40.2437 0L44.3305 6.36261L51.6445 8.28316L46.8562 14.136L47.2898 21.6856L40.2437 18.9403L33.1976 21.6856L33.6313 14.136L28.8429 8.28316L36.157 6.36261L40.2437 0Z" fill="#FBA333"/>
<path d="M68.5 0L72.5867 6.36261L79.9007 8.28316L75.1124 14.136L75.546 21.6856L68.5 18.9403L61.4539 21.6856L61.8875 14.136L57.0992 8.28316L64.4132 6.36261L68.5 0Z" fill="#FBA333"/>
<path d="M96.7563 0L100.843 6.36261L108.157 8.28316L103.369 14.136L103.802 21.6856L96.7563 18.9403L89.7102 21.6856L90.1438 14.136L85.3555 8.28316L92.6696 6.36261L96.7563 0Z" fill="#FBA333"/>
<path d="M125.013 0L129.099 6.36261L136.413 8.28316L131.625 14.136L132.059 21.6856L125.013 18.9403L117.966 21.6856L118.4 14.136L113.612 8.28316L120.926 6.36261L125.013 0Z" fill="#FBA333"/>
</svg>
